<?xml version="1.0" encoding="utf-8" ?>
<svg baseProfile="full" height="57.5mm" version="1.1" viewBox="0,0,306.20000000000005,57.5" width="306.20000000000005mm" xmlns="http://www.w3.org/2000/svg" xmlns:ev="http://www.w3.org/2001/xml-events" xmlns:xlink="http://www.w3.org/1999/xlink"><defs /><rect fill="#FDF6E3" height="57.5" width="306.20000000000005" x="0" y="0" /><text fill="#586E75" style="font-size:6px; font-family:Arial; font-weight:bold;" x="10" y="10">Chitty</text><text fill="#586E75" style="font-size:3px; font-family:Arial;" x="10" y="14.4">2024: 502 hours</text><text fill="#586E75" style="font-size:2.5px; font-family:Arial" x="10" y="18.3">Jan</text><rect fill="#EEE8D5" height="4" rx="1" ry="1" width="4" x="10" y="19.7"><title>2024-01-01</title></rect><rect fill="#EEE8D5" height="4" rx="1" ry="1" width="4" x="10" y="25.1"><title>2024-01-02</title></rect><rect fill="#EEE8D5" height="4" rx="1" ry="1" width="4" x="10" y="30.5"><title>2024-01-03</title></rect><rect fill="#EEE8D5" height="4" rx="1" ry="1" width="4" x="10" y="35.9"><title>2024-01-04</title></rect><rect fill="#EEE8D5" height="4" rx="1" ry="1" width="4" x="10" y="41.300000000000004"><title>2024-01-05</title></rect><rect fill="#EEE8D5" height="4" rx="1" ry="1" width="4" x="10" y="46.699999999999996"><title>2024-01-06</title></rect><rect fill="#EEE8D5" height="4" rx="1" ry="1" width="4" x="10" y="52.1"><title>2024-01-07</title></rect><rect fill="#EEE8D5" height="4" rx="1" ry="1" width="4" x="15.4" y="19.7"><title>2024-01-08</title></rect><rect fill="#EEE8D5" height="4" rx="1" ry="1" width="4" x="15.4" y="25.1"><title>2024-01-09</title></rect><rect fill="#EEE8D5" height="4" rx="1" ry="1" width="4" x="15.4" y="30.5"><title>2024-01-10</title></rect><rect fill="#EEE8D5" height="4" rx="1" ry="1" width="4" x="15.4" y="35.9"><title>2024-01-11</title></rect><rect fill="#EEE8D5" height="4" rx="1" ry="1" width="4" x="15.4" y="41.300000000000004"><title>2024-01-12</title></rect><rect fill="#EEE8D5" height="4" rx="1" ry="1" width="4" x="15.4" y="46.699999999999996"><title>2024-01-13</title></rect><rect fill="#EEE8D5" height="4" rx="1" ry="1" width="4" x="15.4" y="52.1"><title>2024-01-14</title></rect><rect fill="#EEE8D5" height="4" rx="1" ry="1" width="4" x="20.8" y="19.7"><title>2024-01-15</title></rect><rect fill="#EEE8D5" height="4" rx="1" ry="1" width="4" x="20.8" y="25.1"><title>2024-01-16</title></rect><rect fill="#EEE8D5" height="4" rx="1" ry="1" width="4" x="20.8" y="30.5"><title>2024-01-17</title></rect><rect fill="#EEE8D5" height="4" rx="1" ry="1" width="4" x="20.8" y="35.9"><title>2024-01-18</title></rect><rect fill="#EEE8D5" height="4" rx="1" ry="1" width="4" x="20.8" y="41.300000000000004"><title>2024-01-19</title></rect><rect fill="#ffee4a" height="4" rx="1" ry="1" width="4" x="20.8" y="46.699999999999996"><title>2024-01-20 1.17 mins</title></rect><rect fill="#EEE8D5" height="4" rx="1" ry="1" width="4" x="20.8" y="52.1"><title>2024-01-21</title></rect><rect fill="#EEE8D5" height="4" rx="1" ry="1" width="4" x="26.200000000000003" y="19.7"><title>2024-01-22</title></rect><rect fill="#EEE8D5" height="4" rx="1" ry="1" width="4" x="26.200000000000003" y="25.1"><title>2024-01-23</title></rect><rect fill="#EEE8D5" height="4" rx="1" ry="1" width="4" x="26.200000000000003" y="30.5"><title>2024-01-24</title></rect><rect fill="#EEE8D5" height="4" rx="1" ry="1" width="4" x="26.200000000000003" y="35.9"><title>2024-01-25</title></rect><rect fill="#EEE8D5" height="4" rx="1" ry="1" width="4" x="26.200000000000003" y="41.300000000000004"><title>2024-01-26</title></rect><rect fill="#EEE8D5" height="4" rx="1" ry="1" width="4" x="26.200000000000003" y="46.699999999999996"><title>2024-01-27</title></rect><rect fill="#EEE8D5" height="4" rx="1" ry="1" width="4" x="26.200000000000003" y="52.1"><title>2024-01-28</title></rect><rect fill="#EEE8D5" height="4" rx="1" ry="1" width="4" x="31.6" y="19.7"><title>2024-01-29</title></rect><rect fill="#ffed48" height="4" rx="1" ry="1" width="4" x="31.6" y="25.1"><title>2024-01-30 22.92 mins</title></rect><rect fill="#EEE8D5" height="4" rx="1" ry="1" width="4" x="31.6" y="30.5"><title>2024-01-31</title></rect><rect fill="#EEE8D5" height="4" rx="1" ry="1" width="4" x="31.6" y="35.9"><title>2024-02-01</title></rect><rect fill="#ffed47" height="4" rx="1" ry="1" width="4" x="31.6" y="41.300000000000004"><title>2024-02-02 33.4 mins</title></rect><rect fill="#ffec45" height="4" rx="1" ry="1" width="4" x="31.6" y="46.699999999999996"><title>2024-02-03 63.3 mins</title></rect><rect fill="#ffeb43" height="4" rx="1" ry="1" width="4" x="31.6" y="52.1"><title>2024-02-04 80.0 mins</title></rect><text fill="#586E75" style="font-size:2.5px; font-family:Arial" x="37.0" y="18.3">Feb</text><rect fill="#FFC501" height="4" rx="1" ry="1" width="4" x="37.0" y="19.7"><title>2024-02-05 347.57 mins</title></rect><rect fill="#FFC501" height="4" rx="1" ry="1" width="4" x="37.0" y="25.1"><title>2024-02-06 319.92 mins</title></rect><rect fill="#ffe73b" height="4" rx="1" ry="1" width="4" x="37.0" y="30.5"><title>2024-02-07 173.55 mins</title></rect><rect fill="#ffed48" height="4" rx="1" ry="1" width="4" x="37.0" y="35.9"><title>2024-02-08 18.18 mins</title></rect><rect fill="#ffee49" height="4" rx="1" ry="1" width="4" x="37.0" y="41.300000000000004"><title>2024-02-09 13.12 mins</title></rect><rect fill="#ffed47" height="4" rx="1" ry="1" width="4" x="37.0" y="46.699999999999996"><title>2024-02-10 30.23 mins</title></rect><rect fill="#EEE8D5" height="4" rx="1" ry="1" width="4" x="37.0" y="52.1"><title>2024-02-11</title></rect><rect fill="#EEE8D5" height="4" rx="1" ry="1" width="4" x="42.4" y="19.7"><title>2024-02-12</title></rect><rect fill="#ffe93f" height="4" rx="1" ry="1" width="4" x="42.4" y="25.1"><title>2024-02-13 127.28 mins</title></rect><rect fill="#FFC501" height="4" rx="1" ry="1" width="4" x="42.4" y="30.5"><title>2024-02-14 445.85 mins</title></rect><rect fill="#FFC501" height="4" rx="1" ry="1" width="4" x="42.4" y="35.9"><title>2024-02-15 242.57 mins</title></rect><rect fill="#FFC501" height="4" rx="1" ry="1" width="4" x="42.4" y="41.300000000000004"><title>2024-02-16 478.97 mins</title></rect><rect fill="#ffe639" height="4" rx="1" ry="1" width="4" x="42.4" y="46.699999999999996"><title>2024-02-17 201.03 mins</title></rect><rect fill="#EEE8D5" height="4" rx="1" ry="1" width="4" x="42.4" y="52.1"><title>2024-02-18</title></rect><rect fill="#EEE8D5" height="4" rx="1" ry="1" width="4" x="47.8" y="19.7"><title>2024-02-19</title></rect><rect fill="#ffed48" height="4" rx="1" ry="1" width="4" x="47.8" y="25.1"><title>2024-02-20 19.52 mins</title></rect><rect fill="#EEE8D5" height="4" rx="1" ry="1" width="4" x="47.8" y="30.5"><title>2024-02-21</title></rect><rect fill="#ffe83e" height="4" rx="1" ry="1" width="4" x="47.8" y="35.9"><title>2024-02-22 145.35 mins</title></rect><rect fill="#FFC501" height="4" rx="1" ry="1" width="4" x="47.8" y="41.300000000000004"><title>2024-02-23 287.35 mins</title></rect><rect fill="#FFC501" height="4" rx="1" ry="1" width="4" x="47.8" y="46.699999999999996"><title>2024-02-24 442.65 mins</title></rect><rect fill="#ffeb44" height="4" rx="1" ry="1" width="4" x="47.8" y="52.1"><title>2024-02-25 69.03 mins</title></rect><rect fill="#ffee4a" height="4" rx="1" ry="1" width="4" x="53.199999999999996" y="19.7"><title>2024-02-26 0.07 mins</title></rect><rect fill="#ffee4a" height="4" rx="1" ry="1" width="4" x="53.199999999999996" y="25.1"><title>2024-02-27 0.03 mins</title></rect><rect fill="#ffee4a" height="4" rx="1" ry="1" width="4" x="53.199999999999996" y="30.5"><title>2024-02-28 0.6 mins</title></rect><rect fill="#ffed49" height="4" rx="1" ry="1" width="4" x="53.199999999999996" y="35.9"><title>2024-02-29 16.48 mins</title></rect><rect fill="#ffea42" height="4" rx="1" ry="1" width="4" x="53.199999999999996" y="41.300000000000004"><title>2024-03-01 94.2 mins</title></rect><rect fill="#ffe940" height="4" rx="1" ry="1" width="4" x="53.199999999999996" y="46.699999999999996"><title>2024-03-02 120.03 mins</title></rect><rect fill="#ffee49" height="4" rx="1" ry="1" width="4" x="53.199999999999996" y="52.1"><title>2024-03-03 12.0 mins</title></rect><text fill="#586E75" style="font-size:2.5px; font-family:Arial" x="58.599999999999994" y="18.3">Mar</text><rect fill="#ffe93f" height="4" rx="1" ry="1" width="4" x="58.599999999999994" y="19.7"><title>2024-03-04 127.42 mins</title></rect><rect fill="#ffe73b" height="4" rx="1" ry="1" width="4" x="58.599999999999994" y="25.1"><title>2024-03-05 180.35 mins</title></rect><rect fill="#FFC501" height="4" rx="1" ry="1" width="4" x="58.599999999999994" y="30.5"><title>2024-03-06 264.77 mins</title></rect><rect fill="#ffea40" height="4" rx="1" ry="1" width="4" x="58.599999999999994" y="35.9"><title>2024-03-07 112.52 mins</title></rect><rect fill="#ffe93e" height="4" rx="1" ry="1" width="4" x="58.599999999999994" y="41.300000000000004"><title>2024-03-08 139.23 mins</title></rect><rect fill="#FFC501" height="4" rx="1" ry="1" width="4" x="58.599999999999994" y="46.699999999999996"><title>2024-03-09 291.68 mins</title></rect><rect fill="#ffe940" height="4" rx="1" ry="1" width="4" x="58.599999999999994" y="52.1"><title>2024-03-10 119.37 mins</title></rect><rect fill="#ffe93f" height="4" rx="1" ry="1" width="4" x="63.99999999999999" y="19.7"><title>2024-03-11 126.55 mins</title></rect><rect fill="#ffe536" height="4" rx="1" ry="1" width="4" x="63.99999999999999" y="25.1"><title>2024-03-12 230.0 mins</title></rect><rect fill="#ffe93e" height="4" rx="1" ry="1" width="4" x="63.99999999999999" y="30.5"><title>2024-03-13 140.63 mins</title></rect><rect fill="#ffea40" height="4" rx="1" ry="1" width="4" x="63.99999999999999" y="35.9"><title>2024-03-14 118.02 mins</title></rect><rect fill="#ffe73b" height="4" rx="1" ry="1" width="4" x="63.99999999999999" y="41.300000000000004"><title>2024-03-15 179.67 mins</title></rect><rect fill="#FFC501" height="4" rx="1" ry="1" width="4" x="63.99999999999999" y="46.699999999999996"><title>2024-03-16 361.67 mins</title></rect><rect fill="#FFC501" height="4" rx="1" ry="1" width="4" x="63.99999999999999" y="52.1"><title>2024-03-17 589.73 mins</title></rect><rect fill="#ffed48" height="4" rx="1" ry="1" width="4" x="69.39999999999999" y="19.7"><title>2024-03-18 28.22 mins</title></rect><rect fill="#ffec45" height="4" rx="1" ry="1" width="4" x="69.39999999999999" y="25.1"><title>2024-03-19 55.88 mins</title></rect><rect fill="#ffed47" height="4" rx="1" ry="1" width="4" x="69.39999999999999" y="30.5"><title>2024-03-20 32.1 mins</title></rect><rect fill="#ffe93e" height="4" rx="1" ry="1" width="4" x="69.39999999999999" y="35.9"><title>2024-03-21 139.93 mins</title></rect><rect fill="#ffeb44" height="4" rx="1" ry="1" width="4" x="69.39999999999999" y="41.300000000000004"><title>2024-03-22 70.68 mins</title></rect><rect fill="#ffee49" height="4" rx="1" ry="1" width="4" x="69.39999999999999" y="46.699999999999996"><title>2024-03-23 11.13 mins</title></rect><rect fill="#ffe83e" height="4" rx="1" ry="1" width="4" x="69.39999999999999" y="52.1"><title>2024-03-24 145.17 mins</title></rect><rect fill="#ffe93e" height="4" rx="1" ry="1" width="4" x="74.8" y="19.7"><title>2024-03-25 140.48 mins</title></rect><rect fill="#ffeb43" height="4" rx="1" ry="1" width="4" x="74.8" y="25.1"><title>2024-03-26 79.77 mins</title></rect><rect fill="#EEE8D5" height="4" rx="1" ry="1" width="4" x="74.8" y="30.5"><title>2024-03-27</title></rect><rect fill="#ffec46" height="4" rx="1" ry="1" width="4" x="74.8" y="35.9"><title>2024-03-28 44.1 mins</title></rect><rect fill="#ffed47" height="4" rx="1" ry="1" width="4" x="74.8" y="41.300000000000004"><title>2024-03-29 40.22 mins</title></rect><rect fill="#ffee4a" height="4" rx="1" ry="1" width="4" x="74.8" y="46.699999999999996"><title>2024-03-30 3.9 mins</title></rect><rect fill="#ffeb43" height="4" rx="1" ry="1" width="4" x="74.8" y="52.1"><title>2024-03-31 78.88 mins</title></rect><text fill="#586E75" style="font-size:2.5px; font-family:Arial" x="80.2" y="18.3">Apr</text><rect fill="#FFC501" height="4" rx="1" ry="1" width="4" x="80.2" y="19.7"><title>2024-04-01 282.48 mins</title></rect><rect fill="#ffec46" height="4" rx="1" ry="1" width="4" x="80.2" y="25.1"><title>2024-04-02 43.48 mins</title></rect><rect fill="#ffee4a" height="4" rx="1" ry="1" width="4" x="80.2" y="30.5"><title>2024-04-03 2.65 mins</title></rect><rect fill="#ffee49" height="4" rx="1" ry="1" width="4" x="80.2" y="35.9"><title>2024-04-04 7.02 mins</title></rect><rect fill="#ffee4a" height="4" rx="1" ry="1" width="4" x="80.2" y="41.300000000000004"><title>2024-04-05 0.92 mins</title></rect><rect fill="#ffe638" height="4" rx="1" ry="1" width="4" x="80.2" y="46.699999999999996"><title>2024-04-06 210.2 mins</title></rect><rect fill="#ffea41" height="4" rx="1" ry="1" width="4" x="80.2" y="52.1"><title>2024-04-07 103.95 mins</title></rect><rect fill="#FFC501" height="4" rx="1" ry="1" width="4" x="85.60000000000001" y="19.7"><title>2024-04-08 264.27 mins</title></rect><rect fill="#FFC501" height="4" rx="1" ry="1" width="4" x="85.60000000000001" y="25.1"><title>2024-04-09 335.35 mins</title></rect><rect fill="#ffe537" height="4" rx="1" ry="1" width="4" x="85.60000000000001" y="30.5"><title>2024-04-10 218.83 mins</title></rect><rect fill="#ffed47" height="4" rx="1" ry="1" width="4" x="85.60000000000001" y="35.9"><title>2024-04-11 35.67 mins</title></rect><rect fill="#ffed47" height="4" rx="1" ry="1" width="4" x="85.60000000000001" y="41.300000000000004"><title>2024-04-12 40.0 mins</title></rect><rect fill="#ffec45" height="4" rx="1" ry="1" width="4" x="85.60000000000001" y="46.699999999999996"><title>2024-04-13 61.42 mins</title></rect><rect fill="#ffed48" height="4" rx="1" ry="1" width="4" x="85.60000000000001" y="52.1"><title>2024-04-14 27.03 mins</title></rect><rect fill="#FFC501" height="4" rx="1" ry="1" width="4" x="91.00000000000001" y="19.7"><title>2024-04-15 554.73 mins</title></rect><rect fill="#EEE8D5" height="4" rx="1" ry="1" width="4" x="91.00000000000001" y="25.1"><title>2024-04-16</title></rect><rect fill="#EEE8D5" height="4" rx="1" ry="1" width="4" x="91.00000000000001" y="30.5"><title>2024-04-17</title></rect><rect fill="#ffee4a" height="4" rx="1" ry="1" width="4" x="91.00000000000001" y="35.9"><title>2024-04-18 3.08 mins</title></rect><rect fill="#ffee4a" height="4" rx="1" ry="1" width="4" x="91.00000000000001" y="41.300000000000004"><title>2024-04-19 1.57 mins</title></rect><rect fill="#EEE8D5" height="4" rx="1" ry="1" width="4" x="91.00000000000001" y="46.699999999999996"><title>2024-04-20</title></rect><rect fill="#ffe83c" height="4" rx="1" ry="1" width="4" x="91.00000000000001" y="52.1"><title>2024-04-21 166.9 mins</title></rect><rect fill="#ffe93f" height="4" rx="1" ry="1" width="4" x="96.40000000000002" y="19.7"><title>2024-04-22 125.45 mins</title></rect><rect fill="#ffec46" height="4" rx="1" ry="1" width="4" x="96.40000000000002" y="25.1"><title>2024-04-23 45.37 mins</title></rect><rect fill="#FFC501" height="4" rx="1" ry="1" width="4" x="96.40000000000002" y="30.5"><title>2024-04-24 275.17 mins</title></rect><rect fill="#ffec46" height="4" rx="1" ry="1" width="4" x="96.40000000000002" y="35.9"><title>2024-04-25 47.93 mins</title></rect><rect fill="#ffea41" height="4" rx="1" ry="1" width="4" x="96.40000000000002" y="41.300000000000004"><title>2024-04-26 108.8 mins</title></rect><rect fill="#ffee4a" height="4" rx="1" ry="1" width="4" x="96.40000000000002" y="46.699999999999996"><title>2024-04-27 1.73 mins</title></rect><rect fill="#ffeb44" height="4" rx="1" ry="1" width="4" x="96.40000000000002" y="52.1"><title>2024-04-28 74.27 mins</title></rect><rect fill="#ffea42" height="4" rx="1" ry="1" width="4" x="101.80000000000003" y="19.7"><title>2024-04-29 94.37 mins</title></rect><rect fill="#EEE8D5" height="4" rx="1" ry="1" width="4" x="101.80000000000003" y="25.1"><title>2024-04-30</title></rect><rect fill="#ffed48" height="4" rx="1" ry="1" width="4" x="101.80000000000003" y="30.5"><title>2024-05-01 24.47 mins</title></rect><rect fill="#ffee4a" height="4" rx="1" ry="1" width="4" x="101.80000000000003" y="35.9"><title>2024-05-02 5.68 mins</title></rect><rect fill="#ffee4a" height="4" rx="1" ry="1" width="4" x="101.80000000000003" y="41.300000000000004"><title>2024-05-03 0.6 mins</title></rect><rect fill="#ffed47" height="4" rx="1" ry="1" width="4" x="101.80000000000003" y="46.699999999999996"><title>2024-05-04 36.38 mins</title></rect><rect fill="#ffe93f" height="4" rx="1" ry="1" width="4" x="101.80000000000003" y="52.1"><title>2024-05-05 123.18 mins</title></rect><text fill="#586E75" style="font-size:2.5px; font-family:Arial" x="107.20000000000003" y="18.3">May</text><rect fill="#FFC501" height="4" rx="1" ry="1" width="4" x="107.20000000000003" y="19.7"><title>2024-05-06 337.78 mins</title></rect><rect fill="#FFC501" height="4" rx="1" ry="1" width="4" x="107.20000000000003" y="25.1"><title>2024-05-07 295.18 mins</title></rect><rect fill="#EEE8D5" height="4" rx="1" ry="1" width="4" x="107.20000000000003" y="30.5"><title>2024-05-08</title></rect><rect fill="#ffee4a" height="4" rx="1" ry="1" width="4" x="107.20000000000003" y="35.9"><title>2024-05-09 1.15 mins</title></rect><rect fill="#ffee4a" height="4" rx="1" ry="1" width="4" x="107.20000000000003" y="41.300000000000004"><title>2024-05-10 0.08 mins</title></rect><rect fill="#ffee4a" height="4" rx="1" ry="1" width="4" x="107.20000000000003" y="46.699999999999996"><title>2024-05-11 0.05 mins</title></rect><rect fill="#EEE8D5" height="4" rx="1" ry="1" width="4" x="107.20000000000003" y="52.1"><title>2024-05-12</title></rect><rect fill="#ffee4a" height="4" rx="1" ry="1" width="4" x="112.60000000000004" y="19.7"><title>2024-05-13 0.98 mins</title></rect><rect fill="#EEE8D5" height="4" rx="1" ry="1" width="4" x="112.60000000000004" y="25.1"><title>2024-05-14</title></rect><rect fill="#EEE8D5" height="4" rx="1" ry="1" width="4" x="112.60000000000004" y="30.5"><title>2024-05-15</title></rect><rect fill="#ffe83c" height="4" rx="1" ry="1" width="4" x="112.60000000000004" y="35.9"><title>2024-05-16 162.22 mins</title></rect><rect fill="#ffed48" height="4" rx="1" ry="1" width="4" x="112.60000000000004" y="41.300000000000004"><title>2024-05-17 24.3 mins</title></rect><rect fill="#ffee4a" height="4" rx="1" ry="1" width="4" x="112.60000000000004" y="46.699999999999996"><title>2024-05-18 4.47 mins</title></rect><rect fill="#EEE8D5" height="4" rx="1" ry="1" width="4" x="112.60000000000004" y="52.1"><title>2024-05-19</title></rect><rect fill="#EEE8D5" height="4" rx="1" ry="1" width="4" x="118.00000000000004" y="19.7"><title>2024-05-20</title></rect><rect fill="#EEE8D5" height="4" rx="1" ry="1" width="4" x="118.00000000000004" y="25.1"><title>2024-05-21</title></rect><rect fill="#EEE8D5" height="4" rx="1" ry="1" width="4" x="118.00000000000004" y="30.5"><title>2024-05-22</title></rect><rect fill="#ffed48" height="4" rx="1" ry="1" width="4" x="118.00000000000004" y="35.9"><title>2024-05-23 26.97 mins</title></rect><rect fill="#EEE8D5" height="4" rx="1" ry="1" width="4" x="118.00000000000004" y="41.300000000000004"><title>2024-05-24</title></rect><rect fill="#ffee4a" height="4" rx="1" ry="1" width="4" x="118.00000000000004" y="46.699999999999996"><title>2024-05-25 0.08 mins</title></rect><rect fill="#ffe73b" height="4" rx="1" ry="1" width="4" x="118.00000000000004" y="52.1"><title>2024-05-26 176.45 mins</title></rect><rect fill="#EEE8D5" height="4" rx="1" ry="1" width="4" x="123.40000000000005" y="19.7"><title>2024-05-27</title></rect><rect fill="#EEE8D5" height="4" rx="1" ry="1" width="4" x="123.40000000000005" y="25.1"><title>2024-05-28</title></rect><rect fill="#EEE8D5" height="4" rx="1" ry="1" width="4" x="123.40000000000005" y="30.5"><title>2024-05-29</title></rect><rect fill="#ffed47" height="4" rx="1" ry="1" width="4" x="123.40000000000005" y="35.9"><title>2024-05-30 40.42 mins</title></rect><rect fill="#EEE8D5" height="4" rx="1" ry="1" width="4" x="123.40000000000005" y="41.300000000000004"><title>2024-05-31</title></rect><rect fill="#ffee49" height="4" rx="1" ry="1" width="4" x="123.40000000000005" y="46.699999999999996"><title>2024-06-01 10.08 mins</title></rect><rect fill="#FFC501" height="4" rx="1" ry="1" width="4" x="123.40000000000005" y="52.1"><title>2024-06-02 367.47 mins</title></rect><text fill="#586E75" style="font-size:2.5px; font-family:Arial" x="128.80000000000004" y="18.3">Jun</text><rect fill="#FFC501" height="4" rx="1" ry="1" width="4" x="128.80000000000004" y="19.7"><title>2024-06-03 259.78 mins</title></rect><rect fill="#ffee49" height="4" rx="1" ry="1" width="4" x="128.80000000000004" y="25.1"><title>2024-06-04 11.28 mins</title></rect><rect fill="#ffee49" height="4" rx="1" ry="1" width="4" x="128.80000000000004" y="30.5"><title>2024-06-05 9.8 mins</title></rect><rect fill="#EEE8D5" height="4" rx="1" ry="1" width="4" x="128.80000000000004" y="35.9"><title>2024-06-06</title></rect><rect fill="#EEE8D5" height="4" rx="1" ry="1" width="4" x="128.80000000000004" y="41.300000000000004"><title>2024-06-07</title></rect><rect fill="#EEE8D5" height="4" rx="1" ry="1" width="4" x="128.80000000000004" y="46.699999999999996"><title>2024-06-08</title></rect><rect fill="#EEE8D5" height="4" rx="1" ry="1" width="4" x="128.80000000000004" y="52.1"><title>2024-06-09</title></rect><rect fill="#ffee49" height="4" rx="1" ry="1" width="4" x="134.20000000000005" y="19.7"><title>2024-06-10 10.43 mins</title></rect><rect fill="#EEE8D5" height="4" rx="1" ry="1" width="4" x="134.20000000000005" y="25.1"><title>2024-06-11</title></rect><rect fill="#ffee4a" height="4" rx="1" ry="1" width="4" x="134.20000000000005" y="30.5"><title>2024-06-12 0.2 mins</title></rect><rect fill="#EEE8D5" height="4" rx="1" ry="1" width="4" x="134.20000000000005" y="35.9"><title>2024-06-13</title></rect><rect fill="#EEE8D5" height="4" rx="1" ry="1" width="4" x="134.20000000000005" y="41.300000000000004"><title>2024-06-14</title></rect><rect fill="#EEE8D5" height="4" rx="1" ry="1" width="4" x="134.20000000000005" y="46.699999999999996"><title>2024-06-15</title></rect><rect fill="#EEE8D5" height="4" rx="1" ry="1" width="4" x="134.20000000000005" y="52.1"><title>2024-06-16</title></rect><rect fill="#ffee4a" height="4" rx="1" ry="1" width="4" x="139.60000000000005" y="19.7"><title>2024-06-17 2.03 mins</title></rect><rect fill="#EEE8D5" height="4" rx="1" ry="1" width="4" x="139.60000000000005" y="25.1"><title>2024-06-18</title></rect><rect fill="#ffe93e" height="4" rx="1" ry="1" width="4" x="139.60000000000005" y="30.5"><title>2024-06-19 141.22 mins</title></rect><rect fill="#ffea41" height="4" rx="1" ry="1" width="4" x="139.60000000000005" y="35.9"><title>2024-06-20 105.18 mins</title></rect><rect fill="#ffe93f" height="4" rx="1" ry="1" width="4" x="139.60000000000005" y="41.300000000000004"><title>2024-06-21 131.08 mins</title></rect><rect fill="#ffee49" height="4" rx="1" ry="1" width="4" x="139.60000000000005" y="46.699999999999996"><title>2024-06-22 5.98 mins</title></rect><rect fill="#ffe73a" height="4" rx="1" ry="1" width="4" x="139.60000000000005" y="52.1"><title>2024-06-23 182.97 mins</title></rect><rect fill="#ffeb44" height="4" rx="1" ry="1" width="4" x="145.00000000000006" y="19.7"><title>2024-06-24 68.37 mins</title></rect><rect fill="#ffec45" height="4" rx="1" ry="1" width="4" x="145.00000000000006" y="25.1"><title>2024-06-25 62.68 mins</title></rect><rect fill="#ffee49" height="4" rx="1" ry="1" width="4" x="145.00000000000006" y="30.5"><title>2024-06-26 13.48 mins</title></rect><rect fill="#EEE8D5" height="4" rx="1" ry="1" width="4" x="145.00000000000006" y="35.9"><title>2024-06-27</title></rect><rect fill="#ffee4a" height="4" rx="1" ry="1" width="4" x="145.00000000000006" y="41.300000000000004"><title>2024-06-28 1.22 mins</title></rect><rect fill="#EEE8D5" height="4" rx="1" ry="1" width="4" x="145.00000000000006" y="46.699999999999996"><title>2024-06-29</title></rect><rect fill="#EEE8D5" height="4" rx="1" ry="1" width="4" x="145.00000000000006" y="52.1"><title>2024-06-30</title></rect><text fill="#586E75" style="font-size:2.5px; font-family:Arial" x="150.40000000000006" y="18.3">Jul</text><rect fill="#ffe638" height="4" rx="1" ry="1" width="4" x="150.40000000000006" y="19.7"><title>2024-07-01 205.25 mins</title></rect><rect fill="#ffee4a" height="4" rx="1" ry="1" width="4" x="150.40000000000006" y="25.1"><title>2024-07-02 0.1 mins</title></rect><rect fill="#ffed48" height="4" rx="1" ry="1" width="4" x="150.40000000000006" y="30.5"><title>2024-07-03 26.42 mins</title></rect><rect fill="#EEE8D5" height="4" rx="1" ry="1" width="4" x="150.40000000000006" y="35.9"><title>2024-07-04</title></rect><rect fill="#EEE8D5" height="4" rx="1" ry="1" width="4" x="150.40000000000006" y="41.300000000000004"><title>2024-07-05</title></rect><rect fill="#EEE8D5" height="4" rx="1" ry="1" width="4" x="150.40000000000006" y="46.699999999999996"><title>2024-07-06</title></rect><rect fill="#EEE8D5" height="4" rx="1" ry="1" width="4" x="150.40000000000006" y="52.1"><title>2024-07-07</title></rect><rect fill="#EEE8D5" height="4" rx="1" ry="1" width="4" x="155.80000000000007" y="19.7"><title>2024-07-08</title></rect><rect fill="#EEE8D5" height="4" rx="1" ry="1" width="4" x="155.80000000000007" y="25.1"><title>2024-07-09</title></rect><rect fill="#EEE8D5" height="4" rx="1" ry="1" width="4" x="155.80000000000007" y="30.5"><title>2024-07-10</title></rect><rect fill="#ffee4a" height="4" rx="1" ry="1" width="4" x="155.80000000000007" y="35.9"><title>2024-07-11 0.1 mins</title></rect><rect fill="#EEE8D5" height="4" rx="1" ry="1" width="4" x="155.80000000000007" y="41.300000000000004"><title>2024-07-12</title></rect><rect fill="#EEE8D5" height="4" rx="1" ry="1" width="4" x="155.80000000000007" y="46.699999999999996"><title>2024-07-13</title></rect><rect fill="#EEE8D5" height="4" rx="1" ry="1" width="4" x="155.80000000000007" y="52.1"><title>2024-07-14</title></rect><rect fill="#EEE8D5" height="4" rx="1" ry="1" width="4" x="161.20000000000007" y="19.7"><title>2024-07-15</title></rect><rect fill="#EEE8D5" height="4" rx="1" ry="1" width="4" x="161.20000000000007" y="25.1"><title>2024-07-16</title></rect><rect fill="#ffea41" height="4" rx="1" ry="1" width="4" x="161.20000000000007" y="30.5"><title>2024-07-17 107.58 mins</title></rect><rect fill="#EEE8D5" height="4" rx="1" ry="1" width="4" x="161.20000000000007" y="35.9"><title>2024-07-18</title></rect><rect fill="#ffe83d" height="4" rx="1" ry="1" width="4" x="161.20000000000007" y="41.300000000000004"><title>2024-07-19 158.03 mins</title></rect><rect fill="#ffeb43" height="4" rx="1" ry="1" width="4" x="161.20000000000007" y="46.699999999999996"><title>2024-07-20 86.18 mins</title></rect><rect fill="#ffec45" height="4" rx="1" ry="1" width="4" x="161.20000000000007" y="52.1"><title>2024-07-21 56.1 mins</title></rect><rect fill="#ffe93f" height="4" rx="1" ry="1" width="4" x="166.60000000000008" y="19.7"><title>2024-07-22 134.23 mins</title></rect><rect fill="#ffec45" height="4" rx="1" ry="1" width="4" x="166.60000000000008" y="25.1"><title>2024-07-23 63.32 mins</title></rect><rect fill="#ffeb43" height="4" rx="1" ry="1" width="4" x="166.60000000000008" y="30.5"><title>2024-07-24 84.9 mins</title></rect><rect fill="#FFC501" height="4" rx="1" ry="1" width="4" x="166.60000000000008" y="35.9"><title>2024-07-25 313.75 mins</title></rect><rect fill="#ffee4a" height="4" rx="1" ry="1" width="4" x="166.60000000000008" y="41.300000000000004"><title>2024-07-26 0.27 mins</title></rect><rect fill="#ffed48" height="4" rx="1" ry="1" width="4" x="166.60000000000008" y="46.699999999999996"><title>2024-07-27 20.28 mins</title></rect><rect fill="#ffed48" height="4" rx="1" ry="1" width="4" x="166.60000000000008" y="52.1"><title>2024-07-28 24.4 mins</title></rect><rect fill="#ffee49" height="4" rx="1" ry="1" width="4" x="172.00000000000009" y="19.7"><title>2024-07-29 11.5 mins</title></rect><rect fill="#ffee4a" height="4" rx="1" ry="1" width="4" x="172.00000000000009" y="25.1"><title>2024-07-30 0.05 mins</title></rect><rect fill="#ffee4a" height="4" rx="1" ry="1" width="4" x="172.00000000000009" y="30.5"><title>2024-07-31 0.47 mins</title></rect><rect fill="#ffec46" height="4" rx="1" ry="1" width="4" x="172.00000000000009" y="35.9"><title>2024-08-01 52.68 mins</title></rect><rect fill="#ffec46" height="4" rx="1" ry="1" width="4" x="172.00000000000009" y="41.300000000000004"><title>2024-08-02 46.1 mins</title></rect><rect fill="#EEE8D5" height="4" rx="1" ry="1" width="4" x="172.00000000000009" y="46.699999999999996"><title>2024-08-03</title></rect><rect fill="#ffec46" height="4" rx="1" ry="1" width="4" x="172.00000000000009" y="52.1"><title>2024-08-04 51.5 mins</title></rect><text fill="#586E75" style="font-size:2.5px; font-family:Arial" x="177.4000000000001" y="18.3">Aug</text><rect fill="#ffed47" height="4" rx="1" ry="1" width="4" x="177.4000000000001" y="19.7"><title>2024-08-05 34.82 mins</title></rect><rect fill="#ffec46" height="4" rx="1" ry="1" width="4" x="177.4000000000001" y="25.1"><title>2024-08-06 51.22 mins</title></rect><rect fill="#ffee4a" height="4" rx="1" ry="1" width="4" x="177.4000000000001" y="30.5"><title>2024-08-07 0.57 mins</title></rect><rect fill="#ffea42" height="4" rx="1" ry="1" width="4" x="177.4000000000001" y="35.9"><title>2024-08-08 95.83 mins</title></rect><rect fill="#FFC501" height="4" rx="1" ry="1" width="4" x="177.4000000000001" y="41.300000000000004"><title>2024-08-09 710.13 mins</title></rect><rect fill="#ffe93e" height="4" rx="1" ry="1" width="4" x="177.4000000000001" y="46.699999999999996"><title>2024-08-10 141.18 mins</title></rect><rect fill="#ffe638" height="4" rx="1" ry="1" width="4" x="177.4000000000001" y="52.1"><title>2024-08-11 213.03 mins</title></rect><rect fill="#ffe83d" height="4" rx="1" ry="1" width="4" x="182.8000000000001" y="19.7"><title>2024-08-12 156.98 mins</title></rect><rect fill="#ffec46" height="4" rx="1" ry="1" width="4" x="182.8000000000001" y="25.1"><title>2024-08-13 48.65 mins</title></rect><rect fill="#EEE8D5" height="4" rx="1" ry="1" width="4" x="182.8000000000001" y="30.5"><title>2024-08-14</title></rect><rect fill="#ffed47" height="4" rx="1" ry="1" width="4" x="182.8000000000001" y="35.9"><title>2024-08-15 39.17 mins</title></rect><rect fill="#ffee4a" height="4" rx="1" ry="1" width="4" x="182.8000000000001" y="41.300000000000004"><title>2024-08-16 0.05 mins</title></rect><rect fill="#ffed48" height="4" rx="1" ry="1" width="4" x="182.8000000000001" y="46.699999999999996"><title>2024-08-17 20.25 mins</title></rect><rect fill="#ffea41" height="4" rx="1" ry="1" width="4" x="182.8000000000001" y="52.1"><title>2024-08-18 101.53 mins</title></rect><rect fill="#ffed48" height="4" rx="1" ry="1" width="4" x="188.2000000000001" y="19.7"><title>2024-08-19 22.42 mins</title></rect><rect fill="#ffe537" height="4" rx="1" ry="1" width="4" x="188.2000000000001" y="25.1"><title>2024-08-20 220.13 mins</title></rect><rect fill="#FFC501" height="4" rx="1" ry="1" width="4" x="188.2000000000001" y="30.5"><title>2024-08-21 234.83 mins</title></rect><rect fill="#ffeb44" height="4" rx="1" ry="1" width="4" x="188.2000000000001" y="35.9"><title>2024-08-22 72.7 mins</title></rect><rect fill="#ffe940" height="4" rx="1" ry="1" width="4" x="188.2000000000001" y="41.300000000000004"><title>2024-08-23 122.55 mins</title></rect><rect fill="#ffee4a" height="4" rx="1" ry="1" width="4" x="188.2000000000001" y="46.699999999999996"><title>2024-08-24 0.32 mins</title></rect><rect fill="#ffed47" height="4" rx="1" ry="1" width="4" x="188.2000000000001" y="52.1"><title>2024-08-25 32.83 mins</title></rect><rect fill="#ffee4a" height="4" rx="1" ry="1" width="4" x="193.6000000000001" y="19.7"><title>2024-08-26 4.75 mins</title></rect><rect fill="#ffeb44" height="4" rx="1" ry="1" width="4" x="193.6000000000001" y="25.1"><title>2024-08-27 69.28 mins</title></rect><rect fill="#EEE8D5" height="4" rx="1" ry="1" width="4" x="193.6000000000001" y="30.5"><title>2024-08-28</title></rect><rect fill="#ffed48" height="4" rx="1" ry="1" width="4" x="193.6000000000001" y="35.9"><title>2024-08-29 20.33 mins</title></rect><rect fill="#ffe638" height="4" rx="1" ry="1" width="4" x="193.6000000000001" y="41.300000000000004"><title>2024-08-30 206.7 mins</title></rect><rect fill="#ffee49" height="4" rx="1" ry="1" width="4" x="193.6000000000001" y="46.699999999999996"><title>2024-08-31 8.9 mins</title></rect><rect fill="#ffee4a" height="4" rx="1" ry="1" width="4" x="193.6000000000001" y="52.1"><title>2024-09-01 3.92 mins</title></rect><text fill="#586E75" style="font-size:2.5px; font-family:Arial" x="199.0000000000001" y="18.3">Sep</text><rect fill="#ffee4a" height="4" rx="1" ry="1" width="4" x="199.0000000000001" y="19.7"><title>2024-09-02 0.72 mins</title></rect><rect fill="#ffed47" height="4" rx="1" ry="1" width="4" x="199.0000000000001" y="25.1"><title>2024-09-03 29.58 mins</title></rect><rect fill="#ffee49" height="4" rx="1" ry="1" width="4" x="199.0000000000001" y="30.5"><title>2024-09-04 9.03 mins</title></rect><rect fill="#ffeb43" height="4" rx="1" ry="1" width="4" x="199.0000000000001" y="35.9"><title>2024-09-05 78.55 mins</title></rect><rect fill="#ffed49" height="4" rx="1" ry="1" width="4" x="199.0000000000001" y="41.300000000000004"><title>2024-09-06 15.15 mins</title></rect><rect fill="#EEE8D5" height="4" rx="1" ry="1" width="4" x="199.0000000000001" y="46.699999999999996"><title>2024-09-07</title></rect><rect fill="#ffee49" height="4" rx="1" ry="1" width="4" x="199.0000000000001" y="52.1"><title>2024-09-08 9.42 mins</title></rect><rect fill="#ffed47" height="4" rx="1" ry="1" width="4" x="204.40000000000012" y="19.7"><title>2024-09-09 34.25 mins</title></rect><rect fill="#ffeb43" height="4" rx="1" ry="1" width="4" x="204.40000000000012" y="25.1"><title>2024-09-10 82.18 mins</title></rect><rect fill="#ffeb42" height="4" rx="1" ry="1" width="4" x="204.40000000000012" y="30.5"><title>2024-09-11 90.93 mins</title></rect><rect fill="#ffe73a" height="4" rx="1" ry="1" width="4" x="204.40000000000012" y="35.9"><title>2024-09-12 190.68 mins</title></rect><rect fill="#ffe73a" height="4" rx="1" ry="1" width="4" x="204.40000000000012" y="41.300000000000004"><title>2024-09-13 191.62 mins</title></rect><rect fill="#EEE8D5" height="4" rx="1" ry="1" width="4" x="204.40000000000012" y="46.699999999999996"><title>2024-09-14</title></rect><rect fill="#ffea42" height="4" rx="1" ry="1" width="4" x="204.40000000000012" y="52.1"><title>2024-09-15 96.82 mins</title></rect><rect fill="#ffeb42" height="4" rx="1" ry="1" width="4" x="209.80000000000013" y="19.7"><title>2024-09-16 92.33 mins</title></rect><rect fill="#FFC501" height="4" rx="1" ry="1" width="4" x="209.80000000000013" y="25.1"><title>2024-09-17 306.83 mins</title></rect><rect fill="#FFC501" height="4" rx="1" ry="1" width="4" x="209.80000000000013" y="30.5"><title>2024-09-18 481.93 mins</title></rect><rect fill="#ffed48" height="4" rx="1" ry="1" width="4" x="209.80000000000013" y="35.9"><title>2024-09-19 25.93 mins</title></rect><rect fill="#ffe83c" height="4" rx="1" ry="1" width="4" x="209.80000000000013" y="41.300000000000004"><title>2024-09-20 167.87 mins</title></rect><rect fill="#EEE8D5" height="4" rx="1" ry="1" width="4" x="209.80000000000013" y="46.699999999999996"><title>2024-09-21</title></rect><rect fill="#ffed49" height="4" rx="1" ry="1" width="4" x="209.80000000000013" y="52.1"><title>2024-09-22 15.6 mins</title></rect><rect fill="#ffe73a" height="4" rx="1" ry="1" width="4" x="215.20000000000013" y="19.7"><title>2024-09-23 189.08 mins</title></rect><rect fill="#ffe83c" height="4" rx="1" ry="1" width="4" x="215.20000000000013" y="25.1"><title>2024-09-24 167.18 mins</title></rect><rect fill="#ffe83d" height="4" rx="1" ry="1" width="4" x="215.20000000000013" y="30.5"><title>2024-09-25 151.97 mins</title></rect><rect fill="#ffe93e" height="4" rx="1" ry="1" width="4" x="215.20000000000013" y="35.9"><title>2024-09-26 140.25 mins</title></rect><rect fill="#ffe93f" height="4" rx="1" ry="1" width="4" x="215.20000000000013" y="41.300000000000004"><title>2024-09-27 125.1 mins</title></rect><rect fill="#ffee4a" height="4" rx="1" ry="1" width="4" x="215.20000000000013" y="46.699999999999996"><title>2024-09-28 2.13 mins</title></rect><rect fill="#EEE8D5" height="4" rx="1" ry="1" width="4" x="215.20000000000013" y="52.1"><title>2024-09-29</title></rect><rect fill="#EEE8D5" height="4" rx="1" ry="1" width="4" x="220.60000000000014" y="19.7"><title>2024-09-30</title></rect><rect fill="#EEE8D5" height="4" rx="1" ry="1" width="4" x="220.60000000000014" y="25.1"><title>2024-10-01</title></rect><rect fill="#EEE8D5" height="4" rx="1" ry="1" width="4" x="220.60000000000014" y="30.5"><title>2024-10-02</title></rect><rect fill="#EEE8D5" height="4" rx="1" ry="1" width="4" x="220.60000000000014" y="35.9"><title>2024-10-03</title></rect><rect fill="#EEE8D5" height="4" rx="1" ry="1" width="4" x="220.60000000000014" y="41.300000000000004"><title>2024-10-04</title></rect><rect fill="#ffed48" height="4" rx="1" ry="1" width="4" x="220.60000000000014" y="46.699999999999996"><title>2024-10-05 27.37 mins</title></rect><rect fill="#ffee4a" height="4" rx="1" ry="1" width="4" x="220.60000000000014" y="52.1"><title>2024-10-06 0.07 mins</title></rect><text fill="#586E75" style="font-size:2.5px; font-family:Arial" x="226.00000000000014" y="18.3">Oct</text><rect fill="#FFC501" height="4" rx="1" ry="1" width="4" x="226.00000000000014" y="19.7"><title>2024-10-07 381.15 mins</title></rect><rect fill="#FFC501" height="4" rx="1" ry="1" width="4" x="226.00000000000014" y="25.1"><title>2024-10-08 276.6 mins</title></rect><rect fill="#FFC501" height="4" rx="1" ry="1" width="4" x="226.00000000000014" y="30.5"><title>2024-10-09 600.35 mins</title></rect><rect fill="#FFC501" height="4" rx="1" ry="1" width="4" x="226.00000000000014" y="35.9"><title>2024-10-10 376.58 mins</title></rect><rect fill="#FFC501" height="4" rx="1" ry="1" width="4" x="226.00000000000014" y="41.300000000000004"><title>2024-10-11 437.42 mins</title></rect><rect fill="#FFC501" height="4" rx="1" ry="1" width="4" x="226.00000000000014" y="46.699999999999996"><title>2024-10-12 332.87 mins</title></rect><rect fill="#FFC501" height="4" rx="1" ry="1" width="4" x="226.00000000000014" y="52.1"><title>2024-10-13 259.35 mins</title></rect><rect fill="#ffea40" height="4" rx="1" ry="1" width="4" x="231.40000000000015" y="19.7"><title>2024-10-14 115.85 mins</title></rect><rect fill="#ffeb43" height="4" rx="1" ry="1" width="4" x="231.40000000000015" y="25.1"><title>2024-10-15 84.07 mins</title></rect><rect fill="#ffeb42" height="4" rx="1" ry="1" width="4" x="231.40000000000015" y="30.5"><title>2024-10-16 91.03 mins</title></rect><rect fill="#ffe73a" height="4" rx="1" ry="1" width="4" x="231.40000000000015" y="35.9"><title>2024-10-17 184.33 mins</title></rect><rect fill="#ffea40" height="4" rx="1" ry="1" width="4" x="231.40000000000015" y="41.300000000000004"><title>2024-10-18 112.85 mins</title></rect><rect fill="#ffe73a" height="4" rx="1" ry="1" width="4" x="231.40000000000015" y="46.699999999999996"><title>2024-10-19 188.4 mins</title></rect><rect fill="#EEE8D5" height="4" rx="1" ry="1" width="4" x="231.40000000000015" y="52.1"><title>2024-10-20</title></rect><rect fill="#ffe93f" height="4" rx="1" ry="1" width="4" x="236.80000000000015" y="19.7"><title>2024-10-21 133.57 mins</title></rect><rect fill="#ffe93e" height="4" rx="1" ry="1" width="4" x="236.80000000000015" y="25.1"><title>2024-10-22 140.38 mins</title></rect><rect fill="#FFC501" height="4" rx="1" ry="1" width="4" x="236.80000000000015" y="30.5"><title>2024-10-23 267.42 mins</title></rect><rect fill="#ffe93e" height="4" rx="1" ry="1" width="4" x="236.80000000000015" y="35.9"><title>2024-10-24 143.02 mins</title></rect><rect fill="#ffea41" height="4" rx="1" ry="1" width="4" x="236.80000000000015" y="41.300000000000004"><title>2024-10-25 102.28 mins</title></rect><rect fill="#ffe93f" height="4" rx="1" ry="1" width="4" x="236.80000000000015" y="46.699999999999996"><title>2024-10-26 125.65 mins</title></rect><rect fill="#ffe940" height="4" rx="1" ry="1" width="4" x="236.80000000000015" y="52.1"><title>2024-10-27 118.8 mins</title></rect><rect fill="#FFC501" height="4" rx="1" ry="1" width="4" x="242.20000000000016" y="19.7"><title>2024-10-28 286.0 mins</title></rect><rect fill="#ffea42" height="4" rx="1" ry="1" width="4" x="242.20000000000016" y="25.1"><title>2024-10-29 96.38 mins</title></rect><rect fill="#ffed47" height="4" rx="1" ry="1" width="4" x="242.20000000000016" y="30.5"><title>2024-10-30 29.7 mins</title></rect><rect fill="#ffed48" height="4" rx="1" ry="1" width="4" x="242.20000000000016" y="35.9"><title>2024-10-31 17.8 mins</title></rect><rect fill="#EEE8D5" height="4" rx="1" ry="1" width="4" x="242.20000000000016" y="41.300000000000004"><title>2024-11-01</title></rect><rect fill="#EEE8D5" height="4" rx="1" ry="1" width="4" x="242.20000000000016" y="46.699999999999996"><title>2024-11-02</title></rect><rect fill="#ffed49" height="4" rx="1" ry="1" width="4" x="242.20000000000016" y="52.1"><title>2024-11-03 16.72 mins</title></rect><text fill="#586E75" style="font-size:2.5px; font-family:Arial" x="247.60000000000016" y="18.3">Nov</text><rect fill="#ffee4a" height="4" rx="1" ry="1" width="4" x="247.60000000000016" y="19.7"><title>2024-11-04 4.35 mins</title></rect><rect fill="#ffea41" height="4" rx="1" ry="1" width="4" x="247.60000000000016" y="25.1"><title>2024-11-05 110.88 mins</title></rect><rect fill="#ffec44" height="4" rx="1" ry="1" width="4" x="247.60000000000016" y="30.5"><title>2024-11-06 64.7 mins</title></rect><rect fill="#EEE8D5" height="4" rx="1" ry="1" width="4" x="247.60000000000016" y="35.9"><title>2024-11-07</title></rect><rect fill="#ffe93f" height="4" rx="1" ry="1" width="4" x="247.60000000000016" y="41.300000000000004"><title>2024-11-08 130.57 mins</title></rect><rect fill="#ffeb43" height="4" rx="1" ry="1" width="4" x="247.60000000000016" y="46.699999999999996"><title>2024-11-09 77.25 mins</title></rect><rect fill="#FFC501" height="4" rx="1" ry="1" width="4" x="247.60000000000016" y="52.1"><title>2024-11-10 280.02 mins</title></rect><rect fill="#EEE8D5" height="4" rx="1" ry="1" width="4" x="253.00000000000017" y="19.7"><title>2024-11-11</title></rect><rect fill="#ffe73b" height="4" rx="1" ry="1" width="4" x="253.00000000000017" y="25.1"><title>2024-11-12 174.43 mins</title></rect><rect fill="#EEE8D5" height="4" rx="1" ry="1" width="4" x="253.00000000000017" y="30.5"><title>2024-11-13</title></rect><rect fill="#ffeb43" height="4" rx="1" ry="1" width="4" x="253.00000000000017" y="35.9"><title>2024-11-14 84.25 mins</title></rect><rect fill="#EEE8D5" height="4" rx="1" ry="1" width="4" x="253.00000000000017" y="41.300000000000004"><title>2024-11-15</title></rect><rect fill="#EEE8D5" height="4" rx="1" ry="1" width="4" x="253.00000000000017" y="46.699999999999996"><title>2024-11-16</title></rect><rect fill="#EEE8D5" height="4" rx="1" ry="1" width="4" x="253.00000000000017" y="52.1"><title>2024-11-17</title></rect><rect fill="#EEE8D5" height="4" rx="1" ry="1" width="4" x="258.40000000000015" y="19.7"><title>2024-11-18</title></rect><rect fill="#EEE8D5" height="4" rx="1" ry="1" width="4" x="258.40000000000015" y="25.1"><title>2024-11-19</title></rect><rect fill="#EEE8D5" height="4" rx="1" ry="1" width="4" x="258.40000000000015" y="30.5"><title>2024-11-20</title></rect><rect fill="#EEE8D5" height="4" rx="1" ry="1" width="4" x="258.40000000000015" y="35.9"><title>2024-11-21</title></rect><rect fill="#EEE8D5" height="4" rx="1" ry="1" width="4" x="258.40000000000015" y="41.300000000000004"><title>2024-11-22</title></rect><rect fill="#EEE8D5" height="4" rx="1" ry="1" width="4" x="258.40000000000015" y="46.699999999999996"><title>2024-11-23</title></rect><rect fill="#EEE8D5" height="4" rx="1" ry="1" width="4" x="258.40000000000015" y="52.1"><title>2024-11-24</title></rect><rect fill="#EEE8D5" height="4" rx="1" ry="1" width="4" x="263.8000000000001" y="19.7"><title>2024-11-25</title></rect><rect fill="#EEE8D5" height="4" rx="1" ry="1" width="4" x="263.8000000000001" y="25.1"><title>2024-11-26</title></rect><rect fill="#EEE8D5" height="4" rx="1" ry="1" width="4" x="263.8000000000001" y="30.5"><title>2024-11-27</title></rect><rect fill="#EEE8D5" height="4" rx="1" ry="1" width="4" x="263.8000000000001" y="35.9"><title>2024-11-28</title></rect><rect fill="#EEE8D5" height="4" rx="1" ry="1" width="4" x="263.8000000000001" y="41.300000000000004"><title>2024-11-29</title></rect><rect fill="#EEE8D5" height="4" rx="1" ry="1" width="4" x="263.8000000000001" y="46.699999999999996"><title>2024-11-30</title></rect><rect fill="#EEE8D5" height="4" rx="1" ry="1" width="4" x="263.8000000000001" y="52.1"><title>2024-12-01</title></rect><text fill="#586E75" style="font-size:2.5px; font-family:Arial" x="269.2000000000001" y="18.3">Dec</text><rect fill="#EEE8D5" height="4" rx="1" ry="1" width="4" x="269.2000000000001" y="19.7"><title>2024-12-02</title></rect><rect fill="#ffee4a" height="4" rx="1" ry="1" width="4" x="269.2000000000001" y="25.1"><title>2024-12-03 0.12 mins</title></rect><rect fill="#ffea41" height="4" rx="1" ry="1" width="4" x="269.2000000000001" y="30.5"><title>2024-12-04 101.17 mins</title></rect><rect fill="#ffeb44" height="4" rx="1" ry="1" width="4" x="269.2000000000001" y="35.9"><title>2024-12-05 74.1 mins</title></rect><rect fill="#ffeb42" height="4" rx="1" ry="1" width="4" x="269.2000000000001" y="41.300000000000004"><title>2024-12-06 88.03 mins</title></rect><rect fill="#EEE8D5" height="4" rx="1" ry="1" width="4" x="269.2000000000001" y="46.699999999999996"><title>2024-12-07</title></rect><rect fill="#EEE8D5" height="4" rx="1" ry="1" width="4" x="269.2000000000001" y="52.1"><title>2024-12-08</title></rect><rect fill="#EEE8D5" height="4" rx="1" ry="1" width="4" x="274.6000000000001" y="19.7"><title>2024-12-09</title></rect><rect fill="#ffec46" height="4" rx="1" ry="1" width="4" x="274.6000000000001" y="25.1"><title>2024-12-10 41.27 mins</title></rect><rect fill="#ffea41" height="4" rx="1" ry="1" width="4" x="274.6000000000001" y="30.5"><title>2024-12-11 109.25 mins</title></rect><rect fill="#ffec45" height="4" rx="1" ry="1" width="4" x="274.6000000000001" y="35.9"><title>2024-12-12 53.48 mins</title></rect><rect fill="#EEE8D5" height="4" rx="1" ry="1" width="4" x="274.6000000000001" y="41.300000000000004"><title>2024-12-13</title></rect><rect fill="#ffea40" height="4" rx="1" ry="1" width="4" x="274.6000000000001" y="46.699999999999996"><title>2024-12-14 113.83 mins</title></rect><rect fill="#FFC501" height="4" rx="1" ry="1" width="4" x="274.6000000000001" y="52.1"><title>2024-12-15 569.75 mins</title></rect><rect fill="#FFC501" height="4" rx="1" ry="1" width="4" x="280.00000000000006" y="19.7"><title>2024-12-16 389.85 mins</title></rect><rect fill="#FFC501" height="4" rx="1" ry="1" width="4" x="280.00000000000006" y="25.1"><title>2024-12-17 513.18 mins</title></rect><rect fill="#FFC501" height="4" rx="1" ry="1" width="4" x="280.00000000000006" y="30.5"><title>2024-12-18 342.98 mins</title></rect><rect fill="#FFC501" height="4" rx="1" ry="1" width="4" x="280.00000000000006" y="35.9"><title>2024-12-19 253.37 mins</title></rect><rect fill="#FFC501" height="4" rx="1" ry="1" width="4" x="280.00000000000006" y="41.300000000000004"><title>2024-12-20 419.93 mins</title></rect><rect fill="#ffe93f" height="4" rx="1" ry="1" width="4" x="280.00000000000006" y="46.699999999999996"><title>2024-12-21 129.63 mins</title></rect><rect fill="#ffed47" height="4" rx="1" ry="1" width="4" x="280.00000000000006" y="52.1"><title>2024-12-22 30.92 mins</title></rect><rect fill="#ffe83c" height="4" rx="1" ry="1" width="4" x="285.40000000000003" y="19.7"><title>2024-12-23 162.85 mins</title></rect><rect fill="#ffe73b" height="4" rx="1" ry="1" width="4" x="285.40000000000003" y="25.1"><title>2024-12-24 178.88 mins</title></rect><rect fill="#ffea42" height="4" rx="1" ry="1" width="4" x="285.40000000000003" y="30.5"><title>2024-12-25 94.02 mins</title></rect><rect fill="#ffed47" height="4" rx="1" ry="1" width="4" x="285.40000000000003" y="35.9"><title>2024-12-26 30.95 mins</title></rect><rect fill="#ffee4a" height="4" rx="1" ry="1" width="4" x="285.40000000000003" y="41.300000000000004"><title>2024-12-27 1.82 mins</title></rect><rect fill="#ffe639" height="4" rx="1" ry="1" width="4" x="285.40000000000003" y="46.699999999999996"><title>2024-12-28 199.93 mins</title></rect><rect fill="#ffeb43" height="4" rx="1" ry="1" width="4" x="285.40000000000003" y="52.1"><title>2024-12-29 76.63 mins</title></rect><rect fill="#ffeb44" height="4" rx="1" ry="1" width="4" x="290.8" y="19.7"><title>2024-12-30 70.82 mins</title></rect><rect fill="#EEE8D5" height="4" rx="1" ry="1" width="4" x="290.8" y="25.1"><title>2024-12-31</title></rect></svg>